<?xml version="1.0" encoding="utf-8"?>
<svg viewBox="0 0 500 500" xmlns="http://www.w3.org/2000/svg">
  <path opacity="1.000000" stroke="none" d="M 279.048 352.277 C 290.274 354.377 297.98 349.757 305.242 342.169 C 314.797 332.185 324.716 322.556 333.791 312.105 C 336.336 309.174 337.024 306.343 335.97 302.525 C 330.166 281.492 314.021 277.179 298.299 292.736 C 293.19 297.792 287.836 302.506 282.1 306.816 C 277.782 310.061 277.192 317.278 281.069 321.129 C 284.642 324.677 287.065 328.741 287.244 333.817 C 287.37 337.391 286.425 340.7 282.077 341.013 C 277.524 341.341 280.412 346.48 277.345 347.744 C 276.987 347.531 276.217 347.288 276.216 347.04 C 276.151 338.022 267.91 330.476 271.499 320.789 C 272.047 319.309 271.623 317.73 270.484 316.616 C 269.129 315.291 267.652 316.147 266.336 316.827 C 260.419 319.887 254.543 323.026 248.295 325.39 C 245.856 326.312 245.401 328.37 245.367 330.668 C 245.304 334.833 245.245 338.999 245.11 343.163 C 245.04 345.292 245.128 347.509 243.447 349.162 C 241.751 349.364 241.26 348.096 241.118 347.031 C 240.136 339.659 239.078 332.288 238.437 324.883 C 237.603 315.265 237.254 305.607 236.478 295.983 C 235.387 282.455 236.861 268.98 242.334 256.845 C 249.475 241.007 248.18 225.828 243.153 210.202 C 242.082 206.874 241.137 203.464 239.651 200.319 C 233.21 186.678 234.127 172.48 236.119 158.167 C 237.152 150.744 238.474 143.381 241.188 136.352 C 241.975 134.311 241.312 132.431 240.937 130.48 C 240.744 129.476 240.854 128.431 241.902 127.885 C 242.95 127.34 243.853 127.868 244.614 128.554 C 247.262 130.943 248.736 133.68 247.576 137.419 C 244.837 146.254 243.862 155.306 244.35 164.546 C 244.536 168.08 245.537 171.281 247.25 175.258 C 250.575 169.122 253.871 163.991 261.243 165.495 C 265.98 166.461 268.709 169.553 269.827 174.2 C 271.62 181.649 268.464 186.736 261.772 190.043 C 268.052 194.854 278.508 190.248 279.803 182.638 C 280.952 175.888 278.4 170.14 274.689 164.866 C 272.303 161.475 269.391 158.454 266.702 155.277 C 265.668 154.055 264.202 153.017 264.821 151.258 C 266.243 150.085 267.306 150.749 268.241 151.405 C 275.547 156.526 282.211 162.36 286.134 170.54 C 289.82 178.225 289.664 186.064 285.112 193.444 C 283.287 196.402 281.188 199.296 278.741 201.748 C 265.095 215.428 263.148 231.512 269.715 248.764 C 274.535 261.428 276.546 274.429 277.343 287.772 C 277.449 289.547 277.034 291.503 279.217 292.984 C 282.931 291.027 284.803 287.229 287.051 283.927 C 298.883 266.544 307.18 247.52 312.396 227.196 C 313.944 221.163 314.936 215.224 323.635 214.953 C 319.985 210.241 317.001 206.13 318.146 200.812 C 318.82 197.683 320.362 194.895 323.056 192.907 C 327.159 189.878 332.373 190.295 336.271 193.992 C 341.425 198.88 341.094 204.661 334.995 214.343 C 337.365 216.726 340.485 216.117 343.363 216.426 C 346.253 216.737 349.28 216.648 351.721 218.548 C 351.086 221.598 348.843 220.691 347.243 221.079 C 342.346 222.266 335.942 221.57 333.96 227.302 C 332.209 232.366 336.684 236.168 339.717 239.816 C 346.412 247.868 353.811 255.202 362.145 261.476 C 362.994 260.852 363.578 260.649 363.749 260.264 C 368.373 249.813 377.077 248.309 387.089 249.456 C 394.616 250.318 401.89 251.958 408.309 256.178 C 418.398 262.812 421.381 273.748 416.773 284.85 C 410.165 300.775 400.453 314.99 392.388 330.107 C 390.676 333.315 388.691 333.647 386.256 330.937 C 381.183 336.801 379.035 345.019 370.888 348.486 C 370.074 345.888 371.63 344.606 372.521 343.191 C 378.199 334.171 381.149 324.506 379.854 313.743 C 379.53 311.053 378.789 308.513 377.631 306.109 C 373.305 297.126 365.103 295.274 357.698 301.957 C 352.422 306.719 347.654 311.713 347.589 319.912 C 347.508 330.216 345.186 340.335 342.753 350.293 C 344.931 353.193 348.551 351.296 351.468 353.347 C 345.4 355.478 339.661 356.92 333.674 356.947 C 314.525 357.033 295.376 357.012 276.226 357.01 C 239.9 357.008 203.573 356.985 167.246 356.983 C 160.75 356.982 154.549 355.593 148.444 353.703 C 148.479 353.227 148.514 352.752 148.549 352.276 C 191.882 352.276 235.216 352.276 279.048 352.277 M 251.401 278.47 C 248.235 290.601 247.677 303.091 246.477 315.479 C 245.999 320.411 247.297 321.054 251.499 318.674 C 257.026 315.543 261.927 311.549 266.68 307.363 C 268.343 305.898 268.774 304.306 268.296 302.045 C 266.507 293.581 264.601 285.156 261.318 277.126 C 260.166 274.309 259.51 270.094 255.727 270.421 C 252.228 270.723 252.478 274.92 251.401 278.47 M 332.539 252.951 C 327.646 253.739 326.525 255.29 327.76 259.899 C 329.25 265.456 332.125 270.324 335.846 274.634 C 339.69 279.085 342.887 283.847 344.753 289.472 C 345.146 290.655 345.425 292.099 347.492 292.801 C 353.103 285.553 356.922 277.181 360.374 268.616 C 360.986 267.098 359.84 266.071 358.704 265.347 C 350.721 260.259 342.783 255.062 332.539 252.951 M 339.699 327.747 C 339.483 326.007 339.949 324.045 337.658 322.436 C 326.224 332.284 314.265 341.629 301.483 350.915 C 302.861 351.581 303.42 352.085 303.982 352.088 C 314.309 352.153 324.636 352.202 334.963 352.145 C 337.825 352.129 338.787 350.361 339.052 347.576 C 339.653 341.259 339.843 334.946 339.699 327.747 M 415.386 278.298 C 416.434 275.89 415.591 273.756 414.463 271.64 C 410.229 263.697 402.459 260.466 391.408 261.819 C 386.719 262.393 382.738 263.849 381.994 269.061 C 381.302 273.907 384.45 276.783 388.352 278.802 C 394.379 281.922 400.933 282.794 407.621 283.432 C 411.582 283.809 414.046 282.918 415.386 278.298 M 391.242 315.596 C 397.136 306.608 403.029 297.621 409.044 288.448 C 408.161 288.201 407.674 287.898 407.251 287.971 C 397.691 289.618 388.361 289.067 379.33 285.251 C 378.402 284.859 377.283 284.849 376.688 285.92 C 375.991 287.177 376.728 288.205 377.567 289.032 C 385.126 296.486 389.577 305.257 389.569 316.109 C 389.568 318.041 390.47 316.451 391.242 315.596 Z" style="fill: rgb(255, 119, 0);"/>
  <path opacity="1.000000" stroke="none" d="M 190.998 225.422 C 195.997 236.848 201.794 247.769 214.277 252.572 C 221.894 255.502 231.447 249.728 233.464 241.787 C 233.923 239.979 232.938 238.553 232.54 236.975 C 232.036 234.979 230.75 233.111 231.328 230.663 C 239.627 236.532 238.803 250.059 230.148 255.791 C 223.386 260.27 216.433 262.239 208.52 258.38 C 204.25 256.297 199.393 256.622 194.735 256.951 C 189.752 257.303 188.681 261.149 188.381 265.117 C 187.898 271.526 189.437 277.711 191.479 283.705 C 197.346 300.929 205.364 317.182 214.007 333.158 C 216.205 337.223 219.239 341.162 218.892 346.096 C 217.166 346.791 216.234 346.111 215.82 345.274 C 212.978 339.536 207.588 337.529 202.138 335.297 C 191.445 330.918 181.659 324.913 172.593 317.741 C 171.446 316.834 170.427 315.601 167.821 315.94 C 166.84 326.019 169.645 336.372 167.908 346.859 C 164.825 346.297 164.291 344.046 163.639 342.111 C 160.177 331.837 157.724 321.31 156.731 310.513 C 156.258 305.372 155.387 301.18 149.421 299.614 C 143.316 298.011 138.54 298.871 134.56 303.668 C 130.165 308.966 128.453 315.429 127.373 322.044 C 126.247 328.943 125.209 335.861 125.27 342.892 C 125.283 344.284 125.644 346.247 123.583 346.531 C 121.452 346.825 120.721 345.122 120.478 343.375 C 117.85 324.484 116.035 305.779 130.628 290.104 C 133.218 287.322 135.073 283.851 136.454 280.253 C 137.217 278.263 138.094 276.143 136.17 274.194 C 134.345 272.345 132.123 272.661 130.094 273.357 C 119.92 276.846 110.376 281.555 102.729 289.311 C 97.468 294.647 92.691 300.424 88.527 306.701 C 84.354 312.992 78.521 317.404 71.556 320.135 C 68.612 321.289 65.291 322.06 62.455 319.404 C 63.275 317.593 64.74 317.813 66.006 317.609 C 76.137 315.982 84.774 307.964 87.046 298.071 C 88.466 291.888 85.864 287.958 79.686 286.954 C 66.628 284.832 53.091 296.679 53.383 309.955 C 53.404 310.913 53.919 311.936 52.91 313.08 C 49.179 311.771 49.686 308.741 50.216 305.906 C 52.633 293 64.47 282.687 77.604 283.493 C 91.826 284.366 104.203 280.313 115.685 272.511 C 121.812 268.347 126.964 263.133 130.994 256.932 C 134.194 252.008 132.892 249.191 127.391 247.042 C 124.293 245.832 120.429 246.976 117.461 243.821 C 122.121 240.932 127.622 242.868 131.891 240.308 C 131.55 237.401 127.54 235.521 130.081 231.928 C 133.16 232.652 135.002 236.367 138.608 235.354 C 141.969 234.409 141.289 230.077 144.126 228.694 C 147.491 232.056 146.872 234.878 140.953 241.258 C 148.375 241.191 149.509 246.214 150.8 251.645 C 152.412 258.432 154.747 265.049 156.843 271.716 C 157.32 273.235 157.505 275.058 159.745 275.816 C 168.121 263.095 178.389 251.71 178.02 234.568 C 177.516 211.134 170.815 189.808 159.953 169.451 C 159.312 168.249 158.241 166.954 159.65 165.933 C 161.416 164.653 163.524 164.784 165.167 166.321 C 167.893 168.869 169.659 172.03 170.783 175.61 C 175.222 189.741 179.979 203.753 186.268 217.201 C 187.261 219.326 188.227 221.424 190.09 223.689 C 190.649 224.556 190.824 224.989 190.998 225.422 M 192.788 310.295 C 188.456 303.026 185.006 295.174 178.802 289.141 C 175.17 285.609 171.422 286.296 169.284 290.886 C 168.066 293.499 168.177 295.969 169.723 298.473 C 177.622 311.263 187.667 321.985 200.263 330.236 C 201.489 331.039 202.804 332.617 205.155 330.77 C 201.159 324.17 197.152 317.552 192.788 310.295 M 97.463 285.431 C 89.418 287.445 88.946 288.143 92.174 293.467 C 95.022 291.678 96.945 288.96 99.101 286.517 C 100.379 285.069 99.186 285.025 97.463 285.431 Z" style="fill: rgb(255, 152, 9);"/>
  <path opacity="1.000000" stroke="none" d="M 221.159 186.608 C 229.175 188.562 234.132 195.244 235.197 205.348 C 235.633 209.484 235.889 213.802 233.584 217.489 C 232.254 219.615 233.853 221.318 233.52 223.215 C 233.178 225.158 233.02 227.134 231.474 228.609 C 219.94 219.919 210.917 211.198 213.765 195.353 C 214.507 191.221 216.146 187.703 221.159 186.608 Z" style="fill: rgb(255, 149, 0);"/>
  <path opacity="1.000000" stroke="none" d="M 191.294 225.637 C 190.824 224.989 190.649 224.556 190.342 223.932 C 190.061 221.417 189.687 219.081 189.81 216.771 C 190.162 210.168 195.294 205.254 201.006 205.828 C 206.84 206.414 211.591 212.601 210.783 218.863 C 210.204 223.352 208.416 227.242 203.892 229.124 C 198.995 231.162 195.198 228.799 191.294 225.637 Z" style="fill: rgb(255, 145, 0);"/>
  <path opacity="1.000000" stroke="none" d="M 395.646 243.22 C 393.798 245.611 391.94 247.516 389.332 248.34 C 387.363 248.963 385.871 248.132 384.101 245.278 C 390.194 246.058 393.265 242.614 395.741 238.362 C 397.609 240.424 396.262 241.632 395.646 243.22 Z" style="fill: rgb(255, 140, 0);"/>
</svg>