<svg version="1.1" id="Layer_1" xmlns="http://www.w3.org/2000/svg" xmlns:xlink="http://www.w3.org/1999/xlink" x="0px" y="0px"
	 width="100%" viewBox="0 0 733 426" enable-background="new 0 0 733 426" xml:space="preserve">
<path fill="#000000" opacity="1.000000" stroke="none" 
	d="
M431.000000,427.000000 
	C287.333344,427.000000 144.166702,427.000000 1.000038,427.000000 
	C1.000026,285.000031 1.000026,143.000061 1.000013,1.000077 
	C245.333267,1.000051 489.666534,1.000051 733.999878,1.000026 
	C733.999878,142.999924 733.999878,284.999847 733.999939,426.999878 
	C633.166687,427.000000 532.333313,427.000000 431.000000,427.000000 
M571.426697,122.950691 
	C566.898376,120.903564 562.445557,117.319221 557.827759,117.092247 
	C542.877014,116.357399 527.865723,116.887253 512.877869,116.859306 
	C508.073700,116.850349 504.706635,119.467979 502.510834,123.171707 
	C495.282501,135.363846 487.989166,147.552017 481.612518,160.191605 
	C479.890930,163.604034 480.747437,168.718826 481.516632,172.848038 
	C482.048889,175.705612 484.480347,178.202103 486.031006,180.878571 
	C492.247101,191.607635 498.450653,202.343964 504.773743,213.276260 
	C501.478729,218.959198 497.953461,224.989243 494.477814,231.047745 
	C490.925293,237.240204 487.723267,243.658249 483.819519,249.618408 
	C479.015106,256.953613 479.619720,263.723694 483.969971,270.979889 
	C490.590546,282.022888 496.601562,293.434479 503.346680,304.397125 
	C504.875366,306.881683 508.187439,309.390137 510.966797,309.767975 
	C518.481506,310.789520 526.152649,310.964478 533.759338,310.931641 
	C544.046265,310.887238 554.342712,310.531006 564.611572,309.915894 
	C569.432556,309.627167 573.711792,308.129181 576.133301,302.928864 
	C578.663086,297.495972 582.267883,292.574677 585.160645,287.297058 
	C589.352478,279.649231 593.228027,271.826630 597.499573,264.225311 
	C598.144531,263.077728 600.195740,262.114532 601.608337,262.098267 
	C615.271484,261.940582 628.937744,261.930237 642.601929,262.038147 
	C648.434143,262.084167 652.778259,259.636017 655.639282,254.751419 
	C662.215210,243.524002 668.584839,232.175964 675.119690,220.924194 
	C678.053894,215.872070 677.927124,210.945343 675.072632,205.961014 
	C668.368408,194.254333 661.798767,182.468048 654.918091,170.866165 
	C651.886658,165.754761 647.687073,162.655090 640.991455,162.864166 
	C627.006836,163.300842 612.997559,162.888062 599.002014,163.084244 
	C596.062927,163.125443 594.574097,162.151962 593.278442,159.674316 
	C590.498657,154.358795 587.520813,149.140701 584.462280,143.978607 
	C580.380676,137.090012 576.145264,130.292526 571.426697,122.950691 
M157.678284,245.497665 
	C157.678085,249.658539 157.892929,253.837143 157.552094,257.969940 
	C157.444031,259.280396 155.932449,260.537018 154.922089,261.695221 
	C153.694016,263.103027 152.316833,264.380737 151.004150,265.714722 
	C152.687531,266.842773 154.322830,268.848602 156.062775,268.943909 
	C162.865677,269.316528 169.712570,269.288025 176.516998,268.922607 
	C178.045395,268.840515 180.384109,267.029785 180.747726,265.605774 
	C181.486420,262.712860 179.132660,261.558777 176.511795,261.485229 
	C173.082535,261.388977 169.648544,261.461639 166.149445,261.461639 
	C166.149445,255.699692 166.149445,250.502258 166.149445,245.139420 
	C179.634125,253.998932 193.474533,249.799881 199.230728,242.471497 
	C205.662552,234.282944 205.636307,221.190308 198.684052,213.004761 
	C190.657455,203.554306 179.008377,202.406326 166.971680,209.514114 
	C165.672256,207.962540 164.675293,205.611572 163.206421,205.265900 
	C160.367447,204.597763 157.192139,204.685287 154.299744,205.226532 
	C153.020721,205.465866 151.459549,207.464783 151.216064,208.870895 
	C151.041367,209.879730 152.650894,211.488205 153.818558,212.348434 
	C154.782333,213.058395 156.265335,213.063507 157.678314,213.421524 
	C157.678314,223.898727 157.678314,234.198685 157.678284,245.497665 
M101.376610,197.926636 
	C93.105080,208.942490 97.485909,220.632431 111.246605,223.928253 
	C116.229858,225.121796 121.332962,225.806122 126.357750,226.837845 
	C130.324203,227.652267 132.870514,230.601898 132.381012,234.216614 
	C132.001083,237.022339 129.887146,240.473587 127.498901,241.969681 
	C118.683372,247.492172 108.859695,243.837952 104.637001,234.488327 
	C103.800491,232.636154 101.253555,230.543045 99.363235,230.407806 
	C96.194168,230.181046 95.814201,233.130753 95.971786,235.842636 
	C96.184219,239.498413 95.985397,243.209503 96.565819,246.799408 
	C96.862770,248.636017 98.226608,251.430740 99.545593,251.707397 
	C101.540833,252.125900 103.917953,250.723724 107.523216,249.700653 
	C112.728416,251.871231 119.655029,252.683136 126.881523,250.994202 
	C135.767746,248.917435 141.235931,242.517151 141.285614,233.811523 
	C141.336075,224.972733 137.067139,220.033890 127.342941,217.950836 
	C122.325592,216.876053 117.023140,216.663895 112.299133,214.874771 
	C109.726616,213.900497 106.590820,210.528046 106.453537,208.083115 
	C106.311333,205.550552 108.899452,201.902039 111.322853,200.368668 
	C118.581070,195.776093 126.802513,198.673798 131.006805,206.135635 
	C131.936707,207.786057 134.401184,208.571838 136.159058,209.755753 
	C137.121368,207.910477 138.652893,206.141525 138.912888,204.202103 
	C139.305176,201.275833 139.035492,198.199997 138.634705,195.243652 
	C138.132080,191.536194 135.581726,190.377029 132.183807,191.497238 
	C130.401611,192.084778 128.245438,192.344467 126.444809,191.933792 
	C117.335655,189.856277 108.958237,190.559753 101.376610,197.926636 
M406.864563,204.034134 
	C404.916656,204.441315 402.910675,204.671524 401.031555,205.288284 
	C394.987244,207.272141 391.760651,211.802246 391.827057,217.935715 
	C391.910614,225.650681 397.376709,230.352097 406.999146,231.008438 
	C411.476166,231.313797 416.013794,231.317657 420.395233,232.142120 
	C422.097473,232.462448 424.361786,234.473694 424.700775,236.069305 
	C425.052399,237.724564 423.861694,240.365723 422.472382,241.560287 
	C420.858215,242.948288 418.329132,243.757401 416.137451,243.900040 
	C408.804993,244.377289 402.355103,242.707535 398.392517,235.572418 
	C397.773834,234.458389 395.605743,233.395828 394.426666,233.637741 
	C393.326660,233.863449 391.956085,235.789841 391.817047,237.086884 
	C391.464783,240.372421 391.705261,243.725464 391.766998,247.050400 
	C391.843170,251.154739 394.357361,251.368881 397.592743,250.828781 
	C400.213684,250.391235 402.905060,250.117844 405.556305,250.176147 
	C410.185944,250.277954 414.834656,251.141174 419.428833,250.876526 
	C428.151764,250.374023 434.054169,244.169830 434.001312,236.281097 
	C433.947754,228.286133 428.696381,223.606445 419.169708,222.997696 
	C414.687042,222.711258 410.133972,222.712967 405.764069,221.832916 
	C403.693054,221.415848 400.717529,219.439926 400.450928,217.797150 
	C400.178741,216.119766 402.489227,213.743820 404.129059,212.145721 
	C405.038147,211.259750 406.869751,211.175171 408.317383,211.011993 
	C414.649048,210.298309 419.444397,213.076035 423.736816,217.503250 
	C425.024597,218.831512 427.407043,219.098450 429.288025,219.851593 
	C429.902863,218.079697 430.780426,216.348236 431.061005,214.524918 
	C431.360840,212.576416 431.194183,210.534744 431.059814,208.545303 
	C430.778351,204.377075 429.097778,203.402390 425.190369,204.561722 
	C423.443756,205.079941 421.480530,205.100250 419.634003,205.001694 
	C415.674042,204.790314 411.726074,204.354858 406.864563,204.034134 
M222.772842,207.067322 
	C213.439362,212.397171 209.933319,220.683945 211.093369,231.017944 
	C212.086517,239.865051 216.985016,246.288635 225.318314,249.176453 
	C229.715286,250.700165 234.728424,250.979965 239.452118,250.920959 
	C251.024597,250.776367 259.980011,242.690781 261.785828,231.390335 
	C263.595490,220.065796 257.524902,209.478485 246.694016,205.712387 
	C238.895584,203.000717 231.064819,203.094498 222.772842,207.067322 
M340.348938,231.328430 
	C340.492737,233.484863 340.549133,235.651352 340.796265,237.795883 
	C341.635437,245.078659 344.783142,248.788773 352.026978,250.402924 
	C360.728973,252.341965 368.822327,249.922882 376.379059,245.832977 
	C377.715240,245.109818 377.929291,242.313400 378.661530,240.474396 
	C376.695435,239.904388 374.569550,238.558548 372.796082,238.923813 
	C368.952728,239.715378 365.350677,241.606888 361.539703,242.642807 
	C354.500092,244.556305 349.520111,242.035950 349.144318,236.064026 
	C348.718231,229.293228 349.045959,222.474976 349.045959,215.272278 
	C355.251251,215.272278 361.200958,215.326035 367.148834,215.245316 
	C369.467560,215.213867 371.943634,215.272552 372.046814,211.780273 
	C372.155853,208.090195 369.758698,207.859482 367.095825,207.853912 
	C361.149963,207.841476 355.204041,207.850021 348.777985,207.850021 
	C348.777985,203.627823 349.196289,199.750290 348.595428,196.037659 
	C348.309814,194.272720 346.304016,191.801163 344.685944,191.449097 
	C341.646820,190.787857 340.451050,193.385513 340.389404,196.172928 
	C340.306030,199.944504 340.368652,203.719330 340.368652,207.980087 
	C337.318878,207.980087 334.736450,207.556519 332.401001,208.133209 
	C330.913605,208.500473 329.792511,210.351044 328.507172,211.536514 
	C329.753479,212.767578 330.826660,214.717194 332.284912,215.068436 
	C334.731964,215.657883 337.424164,215.229706 340.348511,215.229706 
	C340.348511,220.763687 340.348511,225.566360 340.348938,231.328430 
M282.983429,214.740265 
	C282.983429,223.867172 282.983429,232.994080 282.983429,242.455246 
	C280.131744,242.455246 277.664459,242.400452 275.200714,242.470322 
	C272.624573,242.543350 270.492462,243.389771 270.586212,246.451309 
	C270.679047,249.483093 272.655396,250.085419 275.370941,250.056229 
	C285.354340,249.948883 295.339996,249.964493 305.323914,250.045624 
	C308.086975,250.068085 310.370728,249.903259 310.328461,246.292603 
	C310.286224,242.687927 307.729858,242.487000 305.158752,242.446396 
	C300.553680,242.373627 295.946625,242.425888 290.972595,242.425888 
	C290.972595,240.516983 290.972473,239.049744 290.972626,237.582489 
	C290.973083,233.422256 290.940430,229.261520 291.004395,225.102264 
	C291.016052,224.342865 291.265442,223.491669 291.668854,222.848206 
	C296.724213,214.784790 304.416077,212.181259 313.674805,214.751923 
	C315.425537,215.238022 318.978333,214.235992 319.487152,213.005615 
	C320.226898,211.216995 319.580048,208.139725 318.354675,206.470871 
	C317.298157,205.031998 314.660461,204.356537 312.628265,204.107635 
	C306.973389,203.415085 301.757294,204.906219 297.192841,208.373886 
	C295.206635,209.882782 293.330505,211.536514 291.120819,213.358276 
	C290.803314,205.008301 290.803314,205.008072 282.990173,205.008148 
	C280.993256,205.008163 278.820953,204.520538 277.050903,205.154770 
	C275.420746,205.738907 274.222992,207.529755 272.834747,208.789047 
	C274.032593,210.080566 275.004761,211.871246 276.484100,212.540024 
	C278.429962,213.419693 280.774780,213.416809 282.983429,214.740265 
z"/>
<path fill="#FDFDFD" opacity="1.000000" stroke="none" 
	d="
M571.701294,123.203300 
	C576.145264,130.292526 580.380676,137.090012 584.462280,143.978607 
	C587.520813,149.140701 590.498657,154.358795 593.278442,159.674316 
	C594.574097,162.151962 596.062927,163.125443 599.002014,163.084244 
	C612.997559,162.888062 627.006836,163.300842 640.991455,162.864166 
	C647.687073,162.655090 651.886658,165.754761 654.918091,170.866165 
	C661.798767,182.468048 668.368408,194.254333 675.072632,205.961014 
	C677.927124,210.945343 678.053894,215.872070 675.119690,220.924194 
	C668.584839,232.175964 662.215210,243.524002 655.639282,254.751419 
	C652.778259,259.636017 648.434143,262.084167 642.601929,262.038147 
	C628.937744,261.930237 615.271484,261.940582 601.608337,262.098267 
	C600.195740,262.114532 598.144531,263.077728 597.499573,264.225311 
	C593.228027,271.826630 589.352478,279.649231 585.160645,287.297058 
	C582.267883,292.574677 578.663086,297.495972 576.133301,302.928864 
	C573.711792,308.129181 569.432556,309.627167 564.611572,309.915894 
	C554.342712,310.531006 544.046265,310.887238 533.759338,310.931641 
	C526.152649,310.964478 518.481506,310.789520 510.966797,309.767975 
	C508.187439,309.390137 504.875366,306.881683 503.346680,304.397125 
	C496.601562,293.434479 490.590546,282.022888 483.969971,270.979889 
	C479.619720,263.723694 479.015106,256.953613 483.819519,249.618408 
	C487.723267,243.658249 490.925293,237.240204 494.477814,231.047745 
	C497.953461,224.989243 501.478729,218.959198 504.773743,213.276260 
	C498.450653,202.343964 492.247101,191.607635 486.031006,180.878571 
	C484.480347,178.202103 482.048889,175.705612 481.516632,172.848038 
	C480.747437,168.718826 479.890930,163.604034 481.612518,160.191605 
	C487.989166,147.552017 495.282501,135.363846 502.510834,123.171707 
	C504.706635,119.467979 508.073700,116.850349 512.877869,116.859306 
	C527.865723,116.887253 542.877014,116.357399 557.827759,117.092247 
	C562.445557,117.319221 566.898376,120.903564 571.701294,123.203300 
M498.883698,161.344147 
	C495.367859,165.322037 494.826935,169.131287 497.863800,174.040115 
	C504.154816,184.208923 509.716370,194.826385 515.765015,205.149719 
	C517.167542,207.543381 518.350647,210.193466 522.334229,210.109283 
	C536.156616,209.817276 549.991577,210.129303 563.814453,209.848923 
	C565.822632,209.808182 568.593872,208.290634 569.644409,206.604431 
	C575.547363,197.129684 581.393311,187.579590 586.483093,177.657349 
	C588.567627,173.593719 593.193787,169.835266 589.341431,163.749786 
	C582.398010,152.781403 576.375061,141.233475 569.603516,130.150070 
	C568.464111,128.285217 565.520813,126.500992 563.365479,126.445518 
	C550.212158,126.106964 537.045593,126.310997 523.883667,126.258987 
	C520.148621,126.244225 517.748230,127.959923 515.956604,131.152206 
	C510.416534,141.023117 504.739929,150.817413 498.883698,161.344147 
M577.932068,235.637833 
	C575.739075,231.979507 573.380920,228.407852 571.402527,224.636932 
	C569.650696,221.297989 567.194336,219.919434 563.434143,219.956772 
	C550.783386,220.082382 538.124390,219.798309 525.483826,220.178314 
	C522.950989,220.254456 519.419312,221.908279 518.164856,223.950516 
	C511.040009,235.549744 504.350677,247.424652 497.845032,259.386230 
	C496.979736,260.977173 497.325195,263.959167 498.256134,265.675110 
	C504.126251,276.494934 510.205292,287.207184 516.482910,297.796326 
	C518.178223,300.656036 519.349792,304.215485 524.209045,304.104004 
	C537.852722,303.790955 551.509888,304.093811 565.157166,303.871765 
	C566.908325,303.843292 569.376953,302.596191 570.251221,301.150482 
	C577.301025,289.492798 584.210938,277.740784 590.727112,265.779846 
	C591.806580,263.798431 591.604858,260.236176 590.547180,258.132446 
	C586.800598,250.680649 582.426331,243.544479 577.932068,235.637833 
M612.522522,171.881287 
	C609.526672,171.882767 606.444336,171.451004 603.562988,172.026047 
	C601.351440,172.467377 598.511108,173.652695 597.465210,175.409134 
	C590.573914,186.982086 584.002991,198.750687 577.590515,210.597778 
	C576.769043,212.115540 576.756897,214.841537 577.575928,216.355072 
	C584.032043,228.284622 590.648376,240.134583 597.583862,251.789795 
	C598.622498,253.535187 601.558594,255.072464 603.652588,255.119537 
	C617.293091,255.426132 630.947144,255.454269 644.586853,255.140701 
	C646.720215,255.091644 649.656616,253.353516 650.769104,251.516678 
	C657.480408,240.435944 663.963074,229.202164 670.033264,217.760147 
	C671.234619,215.495605 671.370728,211.527878 670.182678,209.324295 
	C663.959656,197.782043 657.301636,186.462311 650.395569,175.312500 
	C649.289978,173.527557 646.195251,172.108551 643.968567,172.032593 
	C633.827759,171.686707 623.668457,171.881119 612.522522,171.881287 
z"/>
<path fill="#F9F9F9" opacity="1.000000" stroke="none" 
	d="
M157.678299,244.998138 
	C157.678314,234.198685 157.678314,223.898727 157.678314,213.421524 
	C156.265335,213.063507 154.782333,213.058395 153.818558,212.348434 
	C152.650894,211.488205 151.041367,209.879730 151.216064,208.870895 
	C151.459549,207.464783 153.020721,205.465866 154.299744,205.226532 
	C157.192139,204.685287 160.367447,204.597763 163.206421,205.265900 
	C164.675293,205.611572 165.672256,207.962540 166.971680,209.514114 
	C179.008377,202.406326 190.657455,203.554306 198.684052,213.004761 
	C205.636307,221.190308 205.662552,234.282944 199.230728,242.471497 
	C193.474533,249.799881 179.634125,253.998932 166.149445,245.139420 
	C166.149445,250.502258 166.149445,255.699692 166.149445,261.461639 
	C169.648544,261.461639 173.082535,261.388977 176.511795,261.485229 
	C179.132660,261.558777 181.486420,262.712860 180.747726,265.605774 
	C180.384109,267.029785 178.045395,268.840515 176.516998,268.922607 
	C169.712570,269.288025 162.865677,269.316528 156.062775,268.943909 
	C154.322830,268.848602 152.687531,266.842773 151.004150,265.714722 
	C152.316833,264.380737 153.694016,263.103027 154.922089,261.695221 
	C155.932449,260.537018 157.444031,259.280396 157.552094,257.969940 
	C157.892929,253.837143 157.678085,249.658539 157.678299,244.998138 
M187.925461,215.320023 
	C180.545944,212.082886 174.640350,212.720551 169.956451,217.260269 
	C165.807190,221.281754 164.494797,227.826508 166.722153,233.389420 
	C169.091492,239.307037 173.865082,242.223053 180.922760,242.064178 
	C186.851013,241.930695 192.132980,238.242294 193.939087,232.974823 
	C196.221939,226.316910 194.426880,220.657364 187.925461,215.320023 
z"/>
<path fill="#F8F8F8" opacity="1.000000" stroke="none" 
	d="
M101.633064,197.667435 
	C108.958237,190.559753 117.335655,189.856277 126.444809,191.933792 
	C128.245438,192.344467 130.401611,192.084778 132.183807,191.497238 
	C135.581726,190.377029 138.132080,191.536194 138.634705,195.243652 
	C139.035492,198.199997 139.305176,201.275833 138.912888,204.202103 
	C138.652893,206.141525 137.121368,207.910477 136.159058,209.755753 
	C134.401184,208.571838 131.936707,207.786057 131.006805,206.135635 
	C126.802513,198.673798 118.581070,195.776093 111.322853,200.368668 
	C108.899452,201.902039 106.311333,205.550552 106.453537,208.083115 
	C106.590820,210.528046 109.726616,213.900497 112.299133,214.874771 
	C117.023140,216.663895 122.325592,216.876053 127.342941,217.950836 
	C137.067139,220.033890 141.336075,224.972733 141.285614,233.811523 
	C141.235931,242.517151 135.767746,248.917435 126.881523,250.994202 
	C119.655029,252.683136 112.728416,251.871231 107.523216,249.700653 
	C103.917953,250.723724 101.540833,252.125900 99.545593,251.707397 
	C98.226608,251.430740 96.862770,248.636017 96.565819,246.799408 
	C95.985397,243.209503 96.184219,239.498413 95.971786,235.842636 
	C95.814201,233.130753 96.194168,230.181046 99.363235,230.407806 
	C101.253555,230.543045 103.800491,232.636154 104.637001,234.488327 
	C108.859695,243.837952 118.683372,247.492172 127.498901,241.969681 
	C129.887146,240.473587 132.001083,237.022339 132.381012,234.216614 
	C132.870514,230.601898 130.324203,227.652267 126.357750,226.837845 
	C121.332962,225.806122 116.229858,225.121796 111.246605,223.928253 
	C97.485909,220.632431 93.105080,208.942490 101.633064,197.667435 
z"/>
<path fill="#FAFAFA" opacity="1.000000" stroke="none" 
	d="
M407.318878,204.022644 
	C411.726074,204.354858 415.674042,204.790314 419.634003,205.001694 
	C421.480530,205.100250 423.443756,205.079941 425.190369,204.561722 
	C429.097778,203.402390 430.778351,204.377075 431.059814,208.545303 
	C431.194183,210.534744 431.360840,212.576416 431.061005,214.524918 
	C430.780426,216.348236 429.902863,218.079697 429.288025,219.851593 
	C427.407043,219.098450 425.024597,218.831512 423.736816,217.503250 
	C419.444397,213.076035 414.649048,210.298309 408.317383,211.011993 
	C406.869751,211.175171 405.038147,211.259750 404.129059,212.145721 
	C402.489227,213.743820 400.178741,216.119766 400.450928,217.797150 
	C400.717529,219.439926 403.693054,221.415848 405.764069,221.832916 
	C410.133972,222.712967 414.687042,222.711258 419.169708,222.997696 
	C428.696381,223.606445 433.947754,228.286133 434.001312,236.281097 
	C434.054169,244.169830 428.151764,250.374023 419.428833,250.876526 
	C414.834656,251.141174 410.185944,250.277954 405.556305,250.176147 
	C402.905060,250.117844 400.213684,250.391235 397.592743,250.828781 
	C394.357361,251.368881 391.843170,251.154739 391.766998,247.050400 
	C391.705261,243.725464 391.464783,240.372421 391.817047,237.086884 
	C391.956085,235.789841 393.326660,233.863449 394.426666,233.637741 
	C395.605743,233.395828 397.773834,234.458389 398.392517,235.572418 
	C402.355103,242.707535 408.804993,244.377289 416.137451,243.900040 
	C418.329132,243.757401 420.858215,242.948288 422.472382,241.560287 
	C423.861694,240.365723 425.052399,237.724564 424.700775,236.069305 
	C424.361786,234.473694 422.097473,232.462448 420.395233,232.142120 
	C416.013794,231.317657 411.476166,231.313797 406.999146,231.008438 
	C397.376709,230.352097 391.910614,225.650681 391.827057,217.935715 
	C391.760651,211.802246 394.987244,207.272141 401.031555,205.288284 
	C402.910675,204.671524 404.916656,204.441315 407.318878,204.022644 
z"/>
<path fill="#F8F8F8" opacity="1.000000" stroke="none" 
	d="
M223.138535,206.967651 
	C231.064819,203.094498 238.895584,203.000717 246.694016,205.712387 
	C257.524902,209.478485 263.595490,220.065796 261.785828,231.390335 
	C259.980011,242.690781 251.024597,250.776367 239.452118,250.920959 
	C234.728424,250.979965 229.715286,250.700165 225.318314,249.176453 
	C216.985016,246.288635 212.086517,239.865051 211.093369,231.017944 
	C209.933319,220.683945 213.439362,212.397171 223.138535,206.967651 
M222.037918,219.828400 
	C221.495605,221.376572 220.812729,222.891251 220.434570,224.478546 
	C218.481567,232.676437 223.833115,241.196960 232.041901,243.071716 
	C241.567764,245.247253 250.142471,240.364471 252.086136,231.657700 
	C253.880463,223.619858 250.456924,216.247299 243.422455,213.000473 
	C235.975311,209.563202 228.023361,211.884705 222.037918,219.828400 
z"/>
<path fill="#F6F6F6" opacity="1.000000" stroke="none" 
	d="
M340.348724,230.848740 
	C340.348511,225.566360 340.348511,220.763687 340.348511,215.229706 
	C337.424164,215.229706 334.731964,215.657883 332.284912,215.068436 
	C330.826660,214.717194 329.753479,212.767578 328.507172,211.536514 
	C329.792511,210.351044 330.913605,208.500473 332.401001,208.133209 
	C334.736450,207.556519 337.318878,207.980087 340.368652,207.980087 
	C340.368652,203.719330 340.306030,199.944504 340.389404,196.172928 
	C340.451050,193.385513 341.646820,190.787857 344.685944,191.449097 
	C346.304016,191.801163 348.309814,194.272720 348.595428,196.037659 
	C349.196289,199.750290 348.777985,203.627823 348.777985,207.850021 
	C355.204041,207.850021 361.149963,207.841476 367.095825,207.853912 
	C369.758698,207.859482 372.155853,208.090195 372.046814,211.780273 
	C371.943634,215.272552 369.467560,215.213867 367.148834,215.245316 
	C361.200958,215.326035 355.251251,215.272278 349.045959,215.272278 
	C349.045959,222.474976 348.718231,229.293228 349.144318,236.064026 
	C349.520111,242.035950 354.500092,244.556305 361.539703,242.642807 
	C365.350677,241.606888 368.952728,239.715378 372.796082,238.923813 
	C374.569550,238.558548 376.695435,239.904388 378.661530,240.474396 
	C377.929291,242.313400 377.715240,245.109818 376.379059,245.832977 
	C368.822327,249.922882 360.728973,252.341965 352.026978,250.402924 
	C344.783142,248.788773 341.635437,245.078659 340.796265,237.795883 
	C340.549133,235.651352 340.492737,233.484863 340.348724,230.848740 
z"/>
<path fill="#F8F8F8" opacity="1.000000" stroke="none" 
	d="
M282.965759,214.266830 
	C280.774780,213.416809 278.429962,213.419693 276.484100,212.540024 
	C275.004761,211.871246 274.032593,210.080566 272.834747,208.789047 
	C274.222992,207.529755 275.420746,205.738907 277.050903,205.154770 
	C278.820953,204.520538 280.993256,205.008163 282.990173,205.008148 
	C290.803314,205.008072 290.803314,205.008301 291.120819,213.358276 
	C293.330505,211.536514 295.206635,209.882782 297.192841,208.373886 
	C301.757294,204.906219 306.973389,203.415085 312.628265,204.107635 
	C314.660461,204.356537 317.298157,205.031998 318.354675,206.470871 
	C319.580048,208.139725 320.226898,211.216995 319.487152,213.005615 
	C318.978333,214.235992 315.425537,215.238022 313.674805,214.751923 
	C304.416077,212.181259 296.724213,214.784790 291.668854,222.848206 
	C291.265442,223.491669 291.016052,224.342865 291.004395,225.102264 
	C290.940430,229.261520 290.973083,233.422256 290.972626,237.582489 
	C290.972473,239.049744 290.972595,240.516983 290.972595,242.425888 
	C295.946625,242.425888 300.553680,242.373627 305.158752,242.446396 
	C307.729858,242.487000 310.286224,242.687927 310.328461,246.292603 
	C310.370728,249.903259 308.086975,250.068085 305.323914,250.045624 
	C295.339996,249.964493 285.354340,249.948883 275.370941,250.056229 
	C272.655396,250.085419 270.679047,249.483093 270.586212,246.451309 
	C270.492462,243.389771 272.624573,242.543350 275.200714,242.470322 
	C277.664459,242.400452 280.131744,242.455246 282.983429,242.455246 
	C282.983429,232.994080 282.983429,223.867172 282.965759,214.266830 
z"/>
<path fill="#DD9103" opacity="1.000000" stroke="none" 
	d="
M499.000000,160.992798 
	C504.739929,150.817413 510.416534,141.023117 515.956604,131.152206 
	C517.748230,127.959923 520.148621,126.244225 523.883667,126.258987 
	C537.045593,126.310997 550.212158,126.106964 563.365479,126.445518 
	C565.520813,126.500992 568.464111,128.285217 569.603516,130.150070 
	C576.375061,141.233475 582.398010,152.781403 589.341431,163.749786 
	C593.193787,169.835266 588.567627,173.593719 586.483093,177.657349 
	C581.393311,187.579590 575.547363,197.129684 569.644409,206.604431 
	C568.593872,208.290634 565.822632,209.808182 563.814453,209.848923 
	C549.991577,210.129303 536.156616,209.817276 522.334229,210.109283 
	C518.350647,210.193466 517.167542,207.543381 515.765015,205.149719 
	C509.716370,194.826385 504.154816,184.208923 497.863800,174.040115 
	C494.826935,169.131287 495.367859,165.322037 499.000000,160.992798 
z"/>
<path fill="#DE9102" opacity="1.000000" stroke="none" 
	d="
M578.110962,235.963272 
	C582.426331,243.544479 586.800598,250.680649 590.547180,258.132446 
	C591.604858,260.236176 591.806580,263.798431 590.727112,265.779846 
	C584.210938,277.740784 577.301025,289.492798 570.251221,301.150482 
	C569.376953,302.596191 566.908325,303.843292 565.157166,303.871765 
	C551.509888,304.093811 537.852722,303.790955 524.209045,304.104004 
	C519.349792,304.215485 518.178223,300.656036 516.482910,297.796326 
	C510.205292,287.207184 504.126251,276.494934 498.256134,265.675110 
	C497.325195,263.959167 496.979736,260.977173 497.845032,259.386230 
	C504.350677,247.424652 511.040009,235.549744 518.164856,223.950516 
	C519.419312,221.908279 522.950989,220.254456 525.483826,220.178314 
	C538.124390,219.798309 550.783386,220.082382 563.434143,219.956772 
	C567.194336,219.919434 569.650696,221.297989 571.402527,224.636932 
	C573.380920,228.407852 575.739075,231.979507 578.110962,235.963272 
z"/>
<path fill="#DE9102" opacity="1.000000" stroke="none" 
	d="
M613.019165,171.881256 
	C623.668457,171.881119 633.827759,171.686707 643.968567,172.032593 
	C646.195251,172.108551 649.289978,173.527557 650.395569,175.312500 
	C657.301636,186.462311 663.959656,197.782043 670.182678,209.324295 
	C671.370728,211.527878 671.234619,215.495605 670.033264,217.760147 
	C663.963074,229.202164 657.480408,240.435944 650.769104,251.516678 
	C649.656616,253.353516 646.720215,255.091644 644.586853,255.140701 
	C630.947144,255.454269 617.293091,255.426132 603.652588,255.119537 
	C601.558594,255.072464 598.622498,253.535187 597.583862,251.789795 
	C590.648376,240.134583 584.032043,228.284622 577.575928,216.355072 
	C576.756897,214.841537 576.769043,212.115540 577.590515,210.597778 
	C584.002991,198.750687 590.573914,186.982086 597.465210,175.409134 
	C598.511108,173.652695 601.351440,172.467377 603.562988,172.026047 
	C606.444336,171.451004 609.526672,171.882767 613.019165,171.881256 
z"/>
<path fill="#040404" opacity="1.000000" stroke="none" 
	d="
M188.211304,215.568573 
	C194.426880,220.657364 196.221939,226.316910 193.939087,232.974823 
	C192.132980,238.242294 186.851013,241.930695 180.922760,242.064178 
	C173.865082,242.223053 169.091492,239.307037 166.722153,233.389420 
	C164.494797,227.826508 165.807190,221.281754 169.956451,217.260269 
	C174.640350,212.720551 180.545944,212.082886 188.211304,215.568573 
z"/>
<path fill="#030303" opacity="1.000000" stroke="none" 
	d="
M222.209427,219.485901 
	C228.023361,211.884705 235.975311,209.563202 243.422455,213.000473 
	C250.456924,216.247299 253.880463,223.619858 252.086136,231.657700 
	C250.142471,240.364471 241.567764,245.247253 232.041901,243.071716 
	C223.833115,241.196960 218.481567,232.676437 220.434570,224.478546 
	C220.812729,222.891251 221.495605,221.376572 222.209427,219.485901 
z"/>
</svg>