<?xml version="1.0" encoding="UTF-8"?>
<!DOCTYPE svg PUBLIC "-//W3C//DTD SVG 1.1//EN" "http://www.w3.org/Graphics/SVG/1.1/DTD/svg11.dtd">
<svg xmlns="http://www.w3.org/2000/svg" version="1.1" width="733px" height="426px" style="shape-rendering:geometricPrecision; text-rendering:geometricPrecision; image-rendering:optimizeQuality; fill-rule:evenodd; clip-rule:evenodd" xmlns:xlink="http://www.w3.org/1999/xlink">
<g><path style="opacity:0.999" fill="#f6f6f4" d="M 511.5,115.5 C 524.504,115.333 537.504,115.5 550.5,116C 559.312,115.491 566.812,118.324 573,124.5C 580.399,136.241 587.399,148.241 594,160.5C 594.75,161.126 595.584,161.626 596.5,162C 611.033,162.808 625.533,162.642 640,161.5C 648.911,162.41 654.911,167.076 658,175.5C 664,186.167 670,196.833 676,207.5C 676.422,209.355 676.922,211.189 677.5,213C 676.922,214.811 676.422,216.645 676,218.5C 669,230.833 662,243.167 655,255.5C 653.5,257 652,258.5 650.5,260C 633.167,261 615.833,262 598.5,263C 590.793,276.914 582.96,290.748 575,304.5C 573.363,306.81 571.196,308.31 568.5,309C 550.195,310.536 531.862,310.869 513.5,310C 508.573,309.786 504.739,307.619 502,303.5C 494.145,290.456 486.811,277.123 480,263.5C 479.262,259.739 479.595,256.072 481,252.5C 488.633,239.399 496.133,226.232 503.5,213C 496.133,199.768 488.633,186.601 481,173.5C 479.816,169.551 479.482,165.551 480,161.5C 486.907,147.348 494.573,133.681 503,120.5C 505.398,117.892 508.231,116.225 511.5,115.5 Z"/></g>
<g><path style="opacity:1" fill="#dd9105" d="M 520.5,125.5 C 535.93,125.032 551.263,125.532 566.5,127C 574.961,139.416 582.794,152.25 590,165.5C 590.667,167.167 590.667,168.833 590,170.5C 583.38,183.58 575.88,196.08 567.5,208C 551.259,209.636 534.925,209.97 518.5,209C 510.956,197.416 503.79,185.583 497,173.5C 495.543,170.634 495.21,167.634 496,164.5C 502,153.833 508,143.167 514,132.5C 515.694,129.642 517.861,127.309 520.5,125.5 Z"/></g>
<g><path style="opacity:1" fill="#de9103" d="M 600.5,171.5 C 615.837,171.333 631.17,171.5 646.5,172C 647.931,172.465 649.097,173.299 650,174.5C 656.92,186.004 663.586,197.671 670,209.5C 670.667,211.833 670.667,214.167 670,216.5C 663.464,229.078 656.297,241.245 648.5,253C 632.592,254.636 616.592,254.969 600.5,254C 599.069,253.535 597.903,252.701 597,251.5C 589.247,239.162 582.414,226.329 576.5,213C 582.414,199.671 589.247,186.838 597,174.5C 598.145,173.364 599.312,172.364 600.5,171.5 Z"/></g>
<g><path style="opacity:0.997" fill="#eaeaea" d="M 110.5,190.5 C 118.213,190.862 125.88,190.862 133.5,190.5C 135.374,190.39 136.874,191.056 138,192.5C 138.667,196.833 138.667,201.167 138,205.5C 137.417,207.002 136.584,208.335 135.5,209.5C 131.692,207.526 128.692,204.692 126.5,201C 118.931,196.799 112.431,197.965 107,204.5C 106.132,208.672 107.632,211.838 111.5,214C 117.812,215.441 124.145,216.774 130.5,218C 140.033,222.254 143.2,229.421 140,239.5C 135.596,248.289 128.429,252.289 118.5,251.5C 114.522,251.61 110.688,250.943 107,249.5C 104.864,250.268 102.697,250.934 100.5,251.5C 98.2339,251.069 96.7339,249.736 96,247.5C 95.1928,241.584 95.3594,235.75 96.5,230C 98.6354,229.365 100.635,229.699 102.5,231C 108.245,243.693 117.079,246.527 129,239.5C 131.91,235.851 132.076,232.185 129.5,228.5C 121.538,226.273 113.538,224.106 105.5,222C 95.104,214.851 93.7707,206.185 101.5,196C 104.564,194.141 107.564,192.308 110.5,190.5 Z"/></g>
<g><path style="opacity:0.998" fill="#e5e5e5" d="M 340.5,237.5 C 340.5,229.833 340.5,222.167 340.5,214.5C 337.833,214.5 335.167,214.5 332.5,214.5C 326.005,211.71 326.338,209.21 333.5,207C 335.235,206.349 336.902,206.515 338.5,207.5C 339.329,202.533 339.829,197.533 340,192.5C 343.488,189.538 346.155,190.205 348,194.5C 348.499,198.486 348.666,202.486 348.5,206.5C 355.921,206.109 363.254,206.609 370.5,208C 372.22,211.086 371.553,213.419 368.5,215C 361.842,215.5 355.175,215.666 348.5,215.5C 348.334,221.842 348.5,228.175 349,234.5C 348.918,239.585 351.418,242.252 356.5,242.5C 361.908,241.362 367.241,240.029 372.5,238.5C 377.856,237.997 379.356,239.997 377,244.5C 369.026,250.108 360.193,251.941 350.5,250C 343.972,248.313 340.639,244.146 340.5,237.5 Z"/></g>
<g><path style="opacity:0.998" fill="#e8e8e8" d="M 234.5,202.5 C 258.416,205.342 266.249,218.009 258,240.5C 254.635,245.186 250.135,248.353 244.5,250C 232.678,252.672 222.511,249.839 214,241.5C 205.63,220.232 212.464,207.232 234.5,202.5 Z M 231.5,211.5 C 247.834,211 254.001,218.667 250,234.5C 245.464,241.844 238.964,244.344 230.5,242C 218.883,235.534 216.883,226.868 224.5,216C 226.898,214.476 229.231,212.976 231.5,211.5 Z"/></g>
<g><path style="opacity:0.997" fill="#ededed" d="M 277.5,203.5 C 281.472,204.108 285.472,204.608 289.5,205C 290.113,207.147 290.779,209.314 291.5,211.5C 298.041,204.487 306.041,201.987 315.5,204C 319.293,206.217 320.293,209.384 318.5,213.5C 312.151,213.386 305.818,213.886 299.5,215C 296.705,216.793 294.205,218.96 292,221.5C 290.58,228.05 290.08,234.716 290.5,241.5C 296.176,241.334 301.843,241.501 307.5,242C 310.293,243.545 310.96,245.712 309.5,248.5C 296.846,249.666 284.18,249.833 271.5,249C 268.92,246.88 268.92,244.713 271.5,242.5C 275.094,241.574 278.76,241.241 282.5,241.5C 282.666,232.494 282.5,223.494 282,214.5C 277.945,213.89 274.779,211.89 272.5,208.5C 273.882,206.451 275.548,204.785 277.5,203.5 Z"/></g>
<g><path style="opacity:0.998" fill="#e8e8e8" d="M 156.5,257.5 C 157.166,250.174 157.5,242.674 157.5,235C 157.497,227.136 156.831,219.636 155.5,212.5C 151.513,212.348 150.013,210.348 151,206.5C 156.91,202.14 162.243,202.806 167,208.5C 175.231,203.816 183.731,203.316 192.5,207C 201.885,213.81 205.385,222.977 203,234.5C 199.099,244.459 191.766,249.792 181,250.5C 175.999,249.833 171.332,248.166 167,245.5C 166.501,250.489 166.334,255.489 166.5,260.5C 170.514,260.334 174.514,260.501 178.5,261C 181.167,263.333 181.167,265.667 178.5,268C 170.162,269.918 161.828,269.918 153.5,268C 152.5,267.167 151.5,266.333 150.5,265.5C 152.909,263.098 154.909,260.431 156.5,257.5 Z M 174.5,213.5 C 188.674,212.173 194.841,218.506 193,232.5C 188.615,240.298 182.115,242.798 173.5,240C 164.727,234.005 163.227,226.505 169,217.5C 170.812,216.023 172.645,214.69 174.5,213.5 Z"/></g>
<g><path style="opacity:1" fill="#eaeaea" d="M 402.5,203.5 C 411.789,203.734 420.955,204.067 430,204.5C 432.364,210.006 431.697,215.006 428,219.5C 423.581,217.414 419.415,214.914 415.5,212C 411.5,210 407.5,210 403.5,212C 399.004,216.176 399.671,219.176 405.5,221C 412.615,221.283 419.615,222.283 426.5,224C 433.07,227.655 435.237,233.155 433,240.5C 431.192,244.974 428.026,248.141 423.5,250C 412.923,250.819 402.423,250.652 392,249.5C 390.466,245.289 390.133,240.956 391,236.5C 391.637,234.697 392.803,233.364 394.5,232.5C 398.02,236.177 402.02,239.343 406.5,242C 412.499,244.29 417.999,243.457 423,239.5C 423.896,236.975 423.396,234.808 421.5,233C 414.918,231.702 408.251,230.702 401.5,230C 392.321,226.807 389.154,220.641 392,211.5C 394.539,207.49 398.039,204.824 402.5,203.5 Z"/></g>
<g><path style="opacity:0.78" fill="#666666" d="M 155.5,212.5 C 156.831,219.636 157.497,227.136 157.5,235C 157.5,242.674 157.166,250.174 156.5,257.5C 156.816,242.422 156.483,227.422 155.5,212.5 Z"/></g>
<g><path style="opacity:0.773" fill="#ababab" d="M 332.5,214.5 C 335.167,214.5 337.833,214.5 340.5,214.5C 340.5,222.167 340.5,229.833 340.5,237.5C 339.508,230.352 339.175,223.019 339.5,215.5C 336.941,215.802 334.607,215.468 332.5,214.5 Z"/></g>
<g><path style="opacity:0.999" fill="#de9103" d="M 522.5,219.5 C 537.17,219.333 551.837,219.5 566.5,220C 569,221.167 570.833,223 572,225.5C 578,236.167 584,246.833 590,257.5C 590.667,260.167 590.667,262.833 590,265.5C 583.464,278.078 576.297,290.245 568.5,302C 552.592,303.636 536.592,303.969 520.5,303C 511.1,290.071 503.1,276.237 496.5,261.5C 502.729,249.377 509.229,237.377 516,225.5C 517.494,222.686 519.66,220.686 522.5,219.5 Z"/></g>
</svg>
