<svg version="1.1" id="Layer_1" xmlns="http://www.w3.org/2000/svg" xmlns:xlink="http://www.w3.org/1999/xlink" x="0px" y="0px"
	 width="100%" viewBox="0 0 512 256" enable-background="new 0 0 512 256" xml:space="preserve">
<path fill="#000000" opacity="1.000000" stroke="none" 
	d="
M300.000000,257.000000 
	C200.000000,257.000000 100.500000,257.000000 1.000000,257.000000 
	C1.000000,171.666672 1.000000,86.333336 1.000000,1.000000 
	C171.666672,1.000000 342.333344,1.000000 513.000000,1.000000 
	C513.000000,86.333336 513.000000,171.666672 513.000000,257.000000 
	C442.166656,257.000000 371.333344,257.000000 300.000000,257.000000 
M443.074341,157.020264 
	C437.715179,157.068939 432.356018,157.117615 426.070068,157.021347 
	C419.045898,157.069977 412.021729,157.118622 404.070770,157.020752 
	C395.712830,157.068970 387.354889,157.117188 378.070099,157.019989 
	C371.742645,157.013031 365.415070,156.982712 359.087738,157.005692 
	C352.812836,157.028488 347.645355,159.118835 344.535492,164.963852 
	C341.157654,171.312515 341.216705,177.662994 344.497864,184.019104 
	C347.227875,189.307632 351.702850,191.887863 357.527893,191.965942 
	C364.349121,192.057404 371.173859,191.888214 378.883667,191.982178 
	C381.494934,191.982178 384.106232,191.982178 386.628448,191.982178 
	C389.446442,184.708298 393.850464,179.861267 402.805298,179.980560 
	C410.600006,180.187149 414.482758,184.973297 416.457397,191.833145 
	C419.086182,191.833145 421.542145,191.833145 424.924744,191.982849 
	C431.616241,191.932831 438.307709,191.882812 445.798248,191.979233 
	C455.986298,191.134094 462.306885,183.510284 460.980560,171.106995 
	C460.158691,163.421280 452.674042,155.976837 443.074341,157.020264 
M332.100525,109.020714 
	C330.934113,109.014313 329.766754,109.035484 328.601410,108.997185 
	C318.025085,108.649567 313.924255,114.004539 311.324738,122.261650 
	C309.284332,128.742645 312.817261,137.608139 319.719391,140.852875 
	C323.598846,142.676605 328.537445,142.247314 333.925598,142.983444 
	C342.283081,142.933426 350.640564,142.883408 359.924835,142.983994 
	C369.949280,142.934219 379.973694,142.884430 390.925018,142.984497 
	C401.615723,142.934143 412.306458,142.883789 423.924286,142.983215 
	C434.282013,142.933121 444.639709,142.883026 455.924377,142.982559 
	C462.902649,142.988144 469.882446,143.076706 476.858124,142.944626 
	C478.749725,142.908798 480.817780,142.582230 482.481140,141.745560 
	C490.163971,137.881088 492.797394,131.415787 492.061005,123.032013 
	C491.496887,116.609657 484.389984,109.109863 477.913818,109.034958 
	C470.276642,108.946625 462.636475,109.111816 454.070404,109.022522 
	C443.712646,109.070541 433.354919,109.118553 422.070190,109.021606 
	C411.379517,109.069534 400.688812,109.117455 389.070953,109.020264 
	C379.046661,109.069046 369.022369,109.117828 358.070984,109.020935 
	C349.713623,109.069603 341.356232,109.118271 332.100525,109.020714 
M365.085480,60.023354 
	C359.242340,60.091175 353.181763,59.051476 348.161469,63.327084 
	C343.102814,67.635330 339.945099,76.443459 343.460449,84.792221 
	C346.026703,90.887085 350.107025,95.831619 362.924286,94.983833 
	C372.282227,94.934242 381.640198,94.884651 391.925079,94.984428 
	C402.616028,94.934433 413.307007,94.884438 424.924805,94.984383 
	C431.564819,94.989403 438.204926,95.022469 444.844788,94.992241 
	C452.873840,94.955688 459.793274,89.145859 460.978882,81.506866 
	C462.513062,71.621803 458.458954,62.656948 450.056824,61.242615 
	C441.226990,59.756290 432.032867,60.433971 422.070709,60.021343 
	C411.713165,60.069271 401.355652,60.117199 390.070923,60.020164 
	C382.046509,60.069778 374.022125,60.119396 365.085480,60.023354 
M41.998714,118.498520 
	C45.039711,122.410439 48.080704,126.322357 51.716949,131.000000 
	C48.220165,131.000000 45.629745,131.040848 43.041130,130.989868 
	C39.647884,130.923035 35.768559,132.171021 34.265663,127.152618 
	C34.105080,126.616394 29.412281,126.291542 28.517599,127.329796 
	C25.485363,130.848602 29.572098,138.804337 34.332214,138.950012 
	C40.823441,139.148651 47.331470,139.173355 53.820663,138.943771 
	C58.921738,138.763321 61.911621,134.283539 59.888874,129.551071 
	C58.524891,126.359840 56.273331,123.495392 54.143421,120.694160 
	C48.210629,112.891426 42.134262,105.197868 35.829090,97.094254 
	C41.562531,97.094254 46.537819,97.094254 51.544228,97.094254 
	C52.054287,98.156181 52.278587,99.529366 53.070992,100.070236 
	C54.413120,100.986336 56.306217,102.119423 57.610832,101.781898 
	C58.949478,101.435570 60.533440,99.570984 60.823303,98.131844 
	C61.504070,94.751877 56.192017,89.101074 52.504280,89.032799 
	C46.175735,88.915627 39.839756,88.871361 33.514233,89.052567 
	C30.142282,89.149170 28.317835,91.134651 27.955738,94.639740 
	C27.562878,98.442635 28.585409,101.595528 31.005079,104.540085 
	C34.610954,108.928131 37.998222,113.495819 41.998714,118.498520 
M103.998169,113.929367 
	C97.680748,104.680473 88.504753,100.383995 81.951546,106.158600 
	C79.304749,105.162628 77.026581,104.305359 74.621544,103.400360 
	C73.925728,105.707977 73.078087,107.231735 73.065735,108.762245 
	C72.959579,121.910690 72.957405,135.060669 73.044174,148.209396 
	C73.061279,150.801590 74.317810,152.231644 77.360939,152.089828 
	C80.243675,151.955490 81.142265,150.796692 81.031166,148.109543 
	C80.898445,144.899338 80.999870,141.679428 80.999870,137.931259 
	C85.413292,141.606934 89.867767,142.181671 94.201965,139.870132 
	C104.155975,134.561401 107.388939,126.064949 103.998169,113.929367 
M259.526154,120.014717 
	C265.723022,122.960701 271.919861,125.906693 278.116730,128.852676 
	C277.924805,129.443008 277.732910,130.033325 277.540985,130.623657 
	C271.691956,130.566391 265.853241,132.443497 259.966217,129.646591 
	C258.809448,129.097015 256.438232,129.312668 255.702057,130.136230 
	C254.842224,131.098175 254.428696,133.871719 255.107773,134.527634 
	C257.028259,136.382660 259.467651,138.404083 261.955780,138.810623 
	C266.172821,139.499603 270.584045,139.001617 274.913666,138.999603 
	C281.293060,138.996643 284.400604,136.860977 285.807068,131.517349 
	C286.852325,127.546089 284.016357,122.314262 279.408081,120.111450 
	C274.060974,117.555496 268.632782,115.169151 263.239807,112.709183 
	C268.300415,112.025330 273.118622,112.034576 277.687836,113.105721 
	C280.488068,113.762161 282.893921,114.686905 284.554535,111.842468 
	C286.395142,108.689682 283.710144,106.843346 281.681274,105.370186 
	C280.360077,104.410881 278.345520,104.128159 276.620605,104.058037 
	C272.298126,103.882332 267.963715,104.010246 263.634125,103.996986 
	C259.678223,103.984871 257.036926,105.224876 255.708328,109.555084 
	C254.345016,113.998390 255.543869,116.927826 259.526154,120.014717 
M147.983154,109.817902 
	C140.637115,101.734879 127.320213,100.987801 120.810516,108.891090 
	C116.047218,114.674126 118.043991,122.010468 118.394119,128.740631 
	C118.498238,130.741943 119.972107,132.797699 121.170303,134.593704 
	C125.408989,140.947189 132.052490,138.914352 137.914490,138.845306 
	C140.402740,138.816010 143.344193,137.646530 145.258591,136.025513 
	C150.753510,131.372696 152.038788,117.770836 147.983154,109.817902 
M219.916824,137.993256 
	C223.804276,138.328827 227.763351,139.258957 231.555374,138.802261 
	C234.333694,138.467636 237.363998,136.801376 239.413055,134.826889 
	C241.347961,132.962372 242.326050,129.907639 239.128387,127.645226 
	C236.270187,125.622986 234.760773,126.659935 232.662308,129.313965 
	C231.477356,130.812607 227.983109,130.842346 225.542114,130.798996 
	C224.677567,130.783630 223.191467,128.627228 223.123688,127.386314 
	C222.846619,122.313950 223.008148,117.217644 223.008148,112.257729 
	C227.069595,112.000069 230.597839,112.152985 233.920273,111.399025 
	C235.471573,111.046974 236.624619,108.939980 237.958176,107.628418 
	C236.293228,106.418961 234.758621,104.489998 232.934433,104.159508 
	C229.767014,103.585670 226.420563,104.000053 222.991379,104.000053 
	C222.991379,101.126038 223.417923,98.698784 222.837982,96.542191 
	C222.465637,95.157578 220.741730,93.511581 219.374802,93.241302 
	C218.479553,93.064285 216.609299,94.936668 216.114517,96.245934 
	C215.221619,98.608650 215.032181,101.237190 214.796814,102.463463 
	C212.350098,104.207863 210.244843,105.070938 209.317352,106.633240 
	C208.837799,107.441002 210.306915,110.680099 211.137512,110.778481 
	C215.577698,111.304413 215.047653,114.299927 215.008209,117.238853 
	C214.970261,120.066238 214.590271,122.970261 215.095734,125.704720 
	C215.860825,129.843597 214.802841,134.718155 219.916824,137.993256 
M166.452499,104.004997 
	C166.029678,104.187485 165.243042,104.357246 165.236145,104.554276 
	C164.862656,115.232323 164.456284,125.912506 164.438644,136.593109 
	C164.437317,137.392593 167.283569,138.835464 168.768463,138.788589 
	C169.876785,138.753601 171.486740,136.959808 171.864044,135.656982 
	C172.397278,133.815765 172.346283,131.631165 171.939804,129.722229 
	C170.212418,121.610001 174.480957,116.788834 180.691376,112.833466 
	C183.904251,110.787193 187.216537,111.803772 187.964050,115.398582 
	C188.505844,118.004044 189.829239,120.021652 192.426682,118.815155 
	C194.031784,118.069595 195.843079,115.584679 195.820877,113.903603 
	C195.732834,107.238060 191.963928,103.693382 185.291092,104.114555 
	C181.002701,104.385223 176.784119,105.762253 172.308319,106.690216 
	C171.209976,106.100540 169.254120,105.050491 166.452499,104.004997 
z"/>
<path fill="#FEAE68" opacity="1.000000" stroke="none" 
	d="
M422.997986,60.166019 
	C432.032867,60.433971 441.226990,59.756290 450.056824,61.242615 
	C458.458954,62.656948 462.513062,71.621803 460.978882,81.506866 
	C459.793274,89.145859 452.873840,94.955688 444.844788,94.992241 
	C438.204926,95.022469 431.564819,94.989403 424.462097,94.451492 
	C423.665588,82.667732 423.331787,71.416878 422.997986,60.166019 
z"/>
<path fill="#FFA964" opacity="1.000000" stroke="none" 
	d="
M454.997620,109.167084 
	C462.636475,109.111816 470.276642,108.946625 477.913818,109.034958 
	C484.389984,109.109863 491.496887,116.609657 492.061005,123.032013 
	C492.797394,131.415787 490.163971,137.881088 482.481140,141.745560 
	C480.817780,142.582230 478.749725,142.908798 476.858124,142.944626 
	C469.882446,143.076706 462.902649,142.988144 455.399475,142.504181 
	C454.915558,131.072891 454.956604,120.119987 454.997620,109.167084 
z"/>
<path fill="#FDB56D" opacity="1.000000" stroke="none" 
	d="
M422.534363,60.093681 
	C423.331787,71.416878 423.665588,82.667732 423.998657,94.376518 
	C413.307007,94.884438 402.616028,94.934433 391.462280,94.451767 
	C390.999023,82.667786 390.998566,71.416458 390.998108,60.165127 
	C401.355652,60.117199 411.713165,60.069271 422.534363,60.093681 
z"/>
<path fill="#FCBD73" opacity="1.000000" stroke="none" 
	d="
M377.997070,191.832077 
	C371.173859,191.888214 364.349121,192.057404 357.527893,191.965942 
	C351.702850,191.887863 347.227875,189.307632 344.497864,184.019104 
	C341.216705,177.662994 341.157654,171.312515 344.535492,164.963852 
	C347.645355,159.118835 352.812836,157.028488 359.087738,157.005692 
	C365.415070,156.982712 371.742645,157.013031 378.477112,157.468414 
	C378.279663,159.070602 377.136505,160.233047 377.154938,161.376755 
	C377.318817,171.530411 377.688263,181.680756 377.997070,191.832077 
z"/>
<path fill="#FDB56D" opacity="1.000000" stroke="none" 
	d="
M389.998138,109.165375 
	C400.688812,109.117455 411.379517,109.069534 422.532837,109.512314 
	C422.996002,120.946495 422.996582,131.889969 422.997162,142.833435 
	C412.306458,142.883789 401.615723,142.934143 390.462280,142.451614 
	C389.999054,131.000946 389.998596,120.083160 389.998138,109.165375 
z"/>
<path fill="#FEAF69" opacity="1.000000" stroke="none" 
	d="
M423.460724,142.908325 
	C422.996582,131.889969 422.996002,120.946495 422.996307,109.584793 
	C433.354919,109.118553 443.712646,109.070541 454.533997,109.094803 
	C454.956604,120.119987 454.915558,131.072891 454.935974,142.429352 
	C444.639709,142.883026 434.282013,142.933121 423.460724,142.908325 
z"/>
<path fill="#FCBA71" opacity="1.000000" stroke="none" 
	d="
M389.534546,109.092819 
	C389.998596,120.083160 389.999054,131.000946 389.998840,142.376678 
	C379.973694,142.884430 369.949280,142.934219 359.462128,142.450806 
	C358.998962,131.000626 358.998505,120.083626 358.998077,109.166611 
	C369.022369,109.117828 379.046661,109.069046 389.534546,109.092819 
z"/>
<path fill="#FCBA71" opacity="1.000000" stroke="none" 
	d="
M390.534515,60.092644 
	C390.998566,71.416458 390.999023,82.667786 390.998810,94.377090 
	C381.640198,94.884651 372.282227,94.934242 362.519012,94.532921 
	C362.742493,90.589149 363.555786,87.117607 363.962341,83.599068 
	C364.862274,75.811218 362.129852,67.707527 365.997711,60.169014 
	C374.022125,60.119396 382.046509,60.069778 390.534515,60.092644 
z"/>
<path fill="#FFFFFF" opacity="1.000000" stroke="none" 
	d="
M41.738609,118.242798 
	C37.998222,113.495819 34.610954,108.928131 31.005079,104.540085 
	C28.585409,101.595528 27.562878,98.442635 27.955738,94.639740 
	C28.317835,91.134651 30.142282,89.149170 33.514233,89.052567 
	C39.839756,88.871361 46.175735,88.915627 52.504280,89.032799 
	C56.192017,89.101074 61.504070,94.751877 60.823303,98.131844 
	C60.533440,99.570984 58.949478,101.435570 57.610832,101.781898 
	C56.306217,102.119423 54.413120,100.986336 53.070992,100.070236 
	C52.278587,99.529366 52.054287,98.156181 51.544228,97.094254 
	C46.537819,97.094254 41.562531,97.094254 35.829090,97.094254 
	C42.134262,105.197868 48.210629,112.891426 54.143421,120.694160 
	C56.273331,123.495392 58.524891,126.359840 59.888874,129.551071 
	C61.911621,134.283539 58.921738,138.763321 53.820663,138.943771 
	C47.331470,139.173355 40.823441,139.148651 34.332214,138.950012 
	C29.572098,138.804337 25.485363,130.848602 28.517599,127.329796 
	C29.412281,126.291542 34.105080,126.616394 34.265663,127.152618 
	C35.768559,132.171021 39.647884,130.923035 43.041130,130.989868 
	C45.629745,131.040848 48.220165,131.000000 51.716949,131.000000 
	C48.080704,126.322357 45.039711,122.410439 41.738609,118.242798 
z"/>
<path fill="#FCC076" opacity="1.000000" stroke="none" 
	d="
M358.534546,109.093781 
	C358.998505,120.083626 358.998962,131.000626 358.998718,142.375519 
	C350.640564,142.883408 342.283081,142.933426 333.462708,142.450394 
	C332.999512,131.000534 332.999207,120.083733 332.998871,109.166931 
	C341.356232,109.118271 349.713623,109.069603 358.534546,109.093781 
z"/>
<path fill="#FFFFFF" opacity="1.000000" stroke="none" 
	d="
M104.099442,114.332626 
	C107.388939,126.064949 104.155975,134.561401 94.201965,139.870132 
	C89.867767,142.181671 85.413292,141.606934 80.999870,137.931259 
	C80.999870,141.679428 80.898445,144.899338 81.031166,148.109543 
	C81.142265,150.796692 80.243675,151.955490 77.360939,152.089828 
	C74.317810,152.231644 73.061279,150.801590 73.044174,148.209396 
	C72.957405,135.060669 72.959579,121.910690 73.065735,108.762245 
	C73.078087,107.231735 73.925728,105.707977 74.621544,103.400360 
	C77.026581,104.305359 79.304749,105.162628 81.951546,106.158600 
	C88.504753,100.383995 97.680748,104.680473 104.099442,114.332626 
M90.168701,112.025497 
	C86.151382,112.515129 81.490105,116.961800 81.002495,120.769684 
	C80.379333,125.636009 83.536148,130.962875 87.964973,132.457916 
	C88.512840,132.642868 89.195320,132.847244 89.697571,132.682755 
	C93.599510,131.404846 96.346161,126.380257 97.155243,122.320740 
	C98.307671,116.538506 93.469055,115.314651 90.168701,112.025497 
z"/>
<path fill="#FDB86F" opacity="1.000000" stroke="none" 
	d="
M378.440369,191.907135 
	C377.688263,181.680756 377.318817,171.530411 377.154938,161.376755 
	C377.136505,160.233047 378.279663,159.070602 378.940552,157.541122 
	C387.354889,157.117188 395.712830,157.068970 404.477386,157.469513 
	C404.256012,160.369797 403.341125,162.789062 403.061157,165.279694 
	C402.518250,170.109421 402.332306,174.979294 401.998474,179.832520 
	C393.850464,179.861267 389.446442,184.708298 386.628448,191.982178 
	C384.106232,191.982178 381.494934,191.982178 378.440369,191.907135 
z"/>
<path fill="#FFFFFF" opacity="1.000000" stroke="none" 
	d="
M259.246155,119.738853 
	C255.543869,116.927826 254.345016,113.998390 255.708328,109.555084 
	C257.036926,105.224876 259.678223,103.984871 263.634125,103.996986 
	C267.963715,104.010246 272.298126,103.882332 276.620605,104.058037 
	C278.345520,104.128159 280.360077,104.410881 281.681274,105.370186 
	C283.710144,106.843346 286.395142,108.689682 284.554535,111.842468 
	C282.893921,114.686905 280.488068,113.762161 277.687836,113.105721 
	C273.118622,112.034576 268.300415,112.025330 263.239807,112.709183 
	C268.632782,115.169151 274.060974,117.555496 279.408081,120.111450 
	C284.016357,122.314262 286.852325,127.546089 285.807068,131.517349 
	C284.400604,136.860977 281.293060,138.996643 274.913666,138.999603 
	C270.584045,139.001617 266.172821,139.499603 261.955780,138.810623 
	C259.467651,138.404083 257.028259,136.382660 255.107773,134.527634 
	C254.428696,133.871719 254.842224,131.098175 255.702057,130.136230 
	C256.438232,129.312668 258.809448,129.097015 259.966217,129.646591 
	C265.853241,132.443497 271.691956,130.566391 277.540985,130.623657 
	C277.732910,130.033325 277.924805,129.443008 278.116730,128.852676 
	C271.919861,125.906693 265.723022,122.960701 259.246155,119.738853 
z"/>
<path fill="#FFFFFF" opacity="1.000000" stroke="none" 
	d="
M148.045898,110.214615 
	C152.038788,117.770836 150.753510,131.372696 145.258591,136.025513 
	C143.344193,137.646530 140.402740,138.816010 137.914490,138.845306 
	C132.052490,138.914352 125.408989,140.947189 121.170303,134.593704 
	C119.972107,132.797699 118.498238,130.741943 118.394119,128.740631 
	C118.043991,122.010468 116.047218,114.674126 120.810516,108.891090 
	C127.320213,100.987801 140.637115,101.734879 148.045898,110.214615 
M141.987000,126.851860 
	C141.991333,125.193443 141.885330,123.526131 142.018234,121.878082 
	C142.778397,112.452400 139.399521,111.647972 131.802505,111.941444 
	C127.689400,112.100334 126.054588,114.867004 126.178108,117.919464 
	C126.358139,122.368317 123.365616,128.590500 129.775681,130.641113 
	C133.674637,131.888412 138.729935,132.418198 141.987000,126.851860 
z"/>
<path fill="#FEAF69" opacity="1.000000" stroke="none" 
	d="
M444.999207,191.832794 
	C438.307709,191.882812 431.616241,191.932831 424.473999,191.495667 
	C424.348816,183.559372 424.512634,176.098175 425.066467,168.666061 
	C425.354156,164.806290 426.331238,160.997894 426.996857,157.166290 
	C432.356018,157.117615 437.715179,157.068939 443.537140,157.551666 
	C444.333038,169.332977 444.666138,180.582886 444.999207,191.832794 
z"/>
<path fill="#FCC076" opacity="1.000000" stroke="none" 
	d="
M365.541595,60.096184 
	C362.129852,67.707527 364.862274,75.811218 363.962341,83.599068 
	C363.555786,87.117607 362.742493,90.589149 362.055603,94.457520 
	C350.107025,95.831619 346.026703,90.887085 343.460449,84.792221 
	C339.945099,76.443459 343.102814,67.635330 348.161469,63.327084 
	C353.181763,59.051476 359.242340,60.091175 365.541595,60.096184 
z"/>
<path fill="#FDB56D" opacity="1.000000" stroke="none" 
	d="
M426.533447,157.093811 
	C426.331238,160.997894 425.354156,164.806290 425.066467,168.666061 
	C424.512634,176.098175 424.348816,183.559372 424.010681,191.420822 
	C421.542145,191.833145 419.086182,191.833145 416.457397,191.833145 
	C414.482758,184.973297 410.600006,180.187149 402.401886,179.906540 
	C402.332306,174.979294 402.518250,170.109421 403.061157,165.279694 
	C403.341125,162.789062 404.256012,160.369797 404.940796,157.542755 
	C412.021729,157.118622 419.045898,157.069977 426.533447,157.093811 
z"/>
<path fill="#FFFFFF" opacity="1.000000" stroke="none" 
	d="
M219.531647,137.834137 
	C214.802841,134.718155 215.860825,129.843597 215.095734,125.704720 
	C214.590271,122.970261 214.970261,120.066238 215.008209,117.238853 
	C215.047653,114.299927 215.577698,111.304413 211.137512,110.778481 
	C210.306915,110.680099 208.837799,107.441002 209.317352,106.633240 
	C210.244843,105.070938 212.350098,104.207863 214.796814,102.463463 
	C215.032181,101.237190 215.221619,98.608650 216.114517,96.245934 
	C216.609299,94.936668 218.479553,93.064285 219.374802,93.241302 
	C220.741730,93.511581 222.465637,95.157578 222.837982,96.542191 
	C223.417923,98.698784 222.991379,101.126038 222.991379,104.000053 
	C226.420563,104.000053 229.767014,103.585670 232.934433,104.159508 
	C234.758621,104.489998 236.293228,106.418961 237.958176,107.628418 
	C236.624619,108.939980 235.471573,111.046974 233.920273,111.399025 
	C230.597839,112.152985 227.069595,112.000069 223.008148,112.257729 
	C223.008148,117.217644 222.846619,122.313950 223.123688,127.386314 
	C223.191467,128.627228 224.677567,130.783630 225.542114,130.798996 
	C227.983109,130.842346 231.477356,130.812607 232.662308,129.313965 
	C234.760773,126.659935 236.270187,125.622986 239.128387,127.645226 
	C242.326050,129.907639 241.347961,132.962372 239.413055,134.826889 
	C237.363998,136.801376 234.333694,138.467636 231.555374,138.802261 
	C227.763351,139.258957 223.804276,138.328827 219.531647,137.834137 
z"/>
<path fill="#FBC479" opacity="1.000000" stroke="none" 
	d="
M332.549683,109.093826 
	C332.999207,120.083733 332.999512,131.000534 332.999329,142.375214 
	C328.537445,142.247314 323.598846,142.676605 319.719391,140.852875 
	C312.817261,137.608139 309.284332,128.742645 311.324738,122.261650 
	C313.924255,114.004539 318.025085,108.649567 328.601410,108.997185 
	C329.766754,109.035484 330.934113,109.014313 332.549683,109.093826 
z"/>
<path fill="#FFFFFF" opacity="1.000000" stroke="none" 
	d="
M166.875381,104.002724 
	C169.254120,105.050491 171.209976,106.100540 172.308319,106.690216 
	C176.784119,105.762253 181.002701,104.385223 185.291092,104.114555 
	C191.963928,103.693382 195.732834,107.238060 195.820877,113.903603 
	C195.843079,115.584679 194.031784,118.069595 192.426682,118.815155 
	C189.829239,120.021652 188.505844,118.004044 187.964050,115.398582 
	C187.216537,111.803772 183.904251,110.787193 180.691376,112.833466 
	C174.480957,116.788834 170.212418,121.610001 171.939804,129.722229 
	C172.346283,131.631165 172.397278,133.815765 171.864044,135.656982 
	C171.486740,136.959808 169.876785,138.753601 168.768463,138.788589 
	C167.283569,138.835464 164.437317,137.392593 164.438644,136.593109 
	C164.456284,125.912506 164.862656,115.232323 165.236145,104.554276 
	C165.243042,104.357246 166.029678,104.187485 166.875381,104.002724 
z"/>
<path fill="#FEAE68" opacity="1.000000" stroke="none" 
	d="
M445.398743,191.906006 
	C444.666138,180.582886 444.333038,169.332977 443.999573,157.625275 
	C452.674042,155.976837 460.158691,163.421280 460.980560,171.106995 
	C462.306885,183.510284 455.986298,191.134094 445.398743,191.906006 
z"/>
<path fill="#000000" opacity="1.000000" stroke="none" 
	d="
M90.520401,112.182312 
	C93.469055,115.314651 98.307671,116.538506 97.155243,122.320740 
	C96.346161,126.380257 93.599510,131.404846 89.697571,132.682755 
	C89.195320,132.847244 88.512840,132.642868 87.964973,132.457916 
	C83.536148,130.962875 80.379333,125.636009 81.002495,120.769684 
	C81.490105,116.961800 86.151382,112.515129 90.520401,112.182312 
z"/>
<path fill="#000000" opacity="1.000000" stroke="none" 
	d="
M141.898285,127.279190 
	C138.729935,132.418198 133.674637,131.888412 129.775681,130.641113 
	C123.365616,128.590500 126.358139,122.368317 126.178108,117.919464 
	C126.054588,114.867004 127.689400,112.100334 131.802505,111.941444 
	C139.399521,111.647972 142.778397,112.452400 142.018234,121.878082 
	C141.885330,123.526131 141.991333,125.193443 141.898285,127.279190 
z"/>
</svg>