<?xml version="1.0" encoding="UTF-8" standalone="no" ?>
<!DOCTYPE svg PUBLIC "-//W3C//DTD SVG 1.1//EN" "http://www.w3.org/Graphics/SVG/1.1/DTD/svg11.dtd">
<svg xmlns="http://www.w3.org/2000/svg" xmlns:xlink="http://www.w3.org/1999/xlink" version="1.1" width="1080" height="1080" viewBox="0 0 1080 1080" xml:space="preserve">
<desc>Created with Fabric.js 5.2.4</desc>
<defs>
</defs>
<g transform="matrix(1 0 0 1 540 540)" id="99f688c7-ab59-419d-ab40-45b6b85d089c"  >
<rect style="stroke: none; stroke-width: 1; stroke-dasharray: none; stroke-linecap: butt; stroke-dashoffset: 0; stroke-linejoin: miter; stroke-miterlimit: 4; fill: rgb(255,255,255); fill-rule: nonzero; opacity: 1; visibility: hidden;" vector-effect="non-scaling-stroke"  x="-540" y="-540" rx="0" ry="0" width="1080" height="1080" />
</g>
<g transform="matrix(1 0 0 1 540 540)" id="72ae6105-753d-457c-a680-4892dcc38640"  >
</g>
<g transform="matrix(1.48 0 0 1.44 540 540)"  >
<path style="stroke: none; stroke-width: 1; stroke-dasharray: none; stroke-linecap: butt; stroke-dashoffset: 0; stroke-linejoin: miter; stroke-miterlimit: 4; fill: rgb(0,0,0); fill-rule: nonzero; opacity: 1;" vector-effect="non-scaling-stroke"  transform=" translate(-578.86, -213.82)" d="M 571.701294 123.2033 C 576.145264 130.292526 580.380676 137.090012 584.46228 143.978607 C 587.520813 149.140701 590.498657 154.358795 593.278442 159.674316 C 594.574097 162.151962 596.062927 163.125443 599.002014 163.084244 C 612.997559 162.888062 627.006836 163.300842 640.991455 162.864166 C 647.687073 162.65509 651.886658 165.754761 654.918091 170.866165 C 661.798767 182.468048 668.368408 194.254333 675.072632 205.961014 C 677.927124 210.945343 678.053894 215.87207 675.11969 220.924194 C 668.584839 232.175964 662.21521 243.524002 655.639282 254.751419 C 652.778259 259.636017 648.434143 262.084167 642.601929 262.038147 C 628.937744 261.930237 615.271484 261.940582 601.608337 262.098267 C 600.19574 262.114532 598.144531 263.077728 597.499573 264.225311 C 593.228027 271.82663 589.352478 279.649231 585.160645 287.297058 C 582.267883 292.574677 578.663086 297.495972 576.133301 302.928864 C 573.711792 308.129181 569.432556 309.627167 564.611572 309.915894 C 554.342712 310.531006 544.046265 310.887238 533.759338 310.931641 C 526.152649 310.964478 518.481506 310.78952 510.966797 309.767975 C 508.187439 309.390137 504.875366 306.881683 503.34668 304.397125 C 496.601562 293.434479 490.590546 282.022888 483.969971 270.979889 C 479.61972 263.723694 479.015106 256.953613 483.819519 249.618408 C 487.723267 243.658249 490.925293 237.240204 494.477814 231.047745 C 497.953461 224.989243 501.478729 218.959198 504.773743 213.27626 C 498.450653 202.343964 492.247101 191.607635 486.031006 180.878571 C 484.480347 178.202103 482.048889 175.705612 481.516632 172.848038 C 480.747437 168.718826 479.89093 163.604034 481.612518 160.191605 C 487.989166 147.552017 495.282501 135.363846 502.510834 123.171707 C 504.706635 119.467979 508.0737 116.850349 512.877869 116.859306 C 527.865723 116.887253 542.877014 116.357399 557.827759 117.092247 C 562.445557 117.319221 566.898376 120.903564 571.701294 123.2033 M 498.883698 161.344147 C 495.367859 165.322037 494.826935 169.131287 497.8638 174.040115 C 504.154816 184.208923 509.71637 194.826385 515.765015 205.149719 C 517.167542 207.543381 518.350647 210.193466 522.334229 210.109283 C 536.156616 209.817276 549.991577 210.129303 563.814453 209.848923 C 565.822632 209.808182 568.593872 208.290634 569.644409 206.604431 C 575.547363 197.129684 581.393311 187.57959 586.483093 177.657349 C 588.567627 173.593719 593.193787 169.835266 589.341431 163.749786 C 582.39801 152.781403 576.375061 141.233475 569.603516 130.15007 C 568.464111 128.285217 565.520813 126.500992 563.365479 126.445518 C 550.212158 126.106964 537.045593 126.310997 523.883667 126.258987 C 520.148621 126.244225 517.74823 127.959923 515.956604 131.152206 C 510.416534 141.023117 504.739929 150.817413 498.883698 161.344147 M 577.932068 235.637833 C 575.739075 231.979507 573.38092 228.407852 571.402527 224.636932 C 569.650696 221.297989 567.194336 219.919434 563.434143 219.956772 C 550.783386 220.082382 538.12439 219.798309 525.483826 220.178314 C 522.950989 220.254456 519.419312 221.908279 518.164856 223.950516 C 511.040009 235.549744 504.350677 247.424652 497.845032 259.38623 C 496.979736 260.977173 497.325195 263.959167 498.256134 265.67511 C 504.126251 276.494934 510.205292 287.207184 516.48291 297.796326 C 518.178223 300.656036 519.349792 304.215485 524.209045 304.104004 C 537.852722 303.790955 551.509888 304.093811 565.157166 303.871765 C 566.908325 303.843292 569.376953 302.596191 570.251221 301.150482 C 577.301025 289.492798 584.210938 277.740784 590.727112 265.779846 C 591.80658 263.798431 591.604858 260.236176 590.54718 258.132446 C 586.800598 250.680649 582.426331 243.544479 577.932068 235.637833 M 612.522522 171.881287 C 609.526672 171.882767 606.444336 171.451004 603.562988 172.026047 C 601.35144 172.467377 598.511108 173.652695 597.46521 175.409134 C 590.573914 186.982086 584.002991 198.750687 577.590515 210.597778 C 576.769043 212.11554 576.756897 214.841537 577.575928 216.355072 C 584.032043 228.284622 590.648376 240.134583 597.583862 251.789795 C 598.622498 253.535187 601.558594 255.072464 603.652588 255.119537 C 617.293091 255.426132 630.947144 255.454269 644.586853 255.140701 C 646.720215 255.091644 649.656616 253.353516 650.769104 251.516678 C 657.480408 240.435944 663.963074 229.202164 670.033264 217.760147 C 671.234619 215.495605 671.370728 211.527878 670.182678 209.324295 C 663.959656 197.782043 657.301636 186.462311 650.395569 175.3125 C 649.289978 173.527557 646.195251 172.108551 643.968567 172.032593 C 633.827759 171.686707 623.668457 171.881119 612.522522 171.881287 z" stroke-linecap="round" />
</g>
<g transform="matrix(1.48 0 0 1.44 487.73 474.06)"  >
<path style="stroke: none; stroke-width: 1; stroke-dasharray: none; stroke-linecap: butt; stroke-dashoffset: 0; stroke-linejoin: miter; stroke-miterlimit: 4; fill: rgb(221,145,3); fill-rule: nonzero; opacity: 1;" vector-effect="non-scaling-stroke"  transform=" translate(-543.36, -168.18)" d="M 499 160.992798 C 504.739929 150.817413 510.416534 141.023117 515.956604 131.152206 C 517.74823 127.959923 520.148621 126.244225 523.883667 126.258987 C 537.045593 126.310997 550.212158 126.106964 563.365479 126.445518 C 565.520813 126.500992 568.464111 128.285217 569.603516 130.15007 C 576.375061 141.233475 582.39801 152.781403 589.341431 163.749786 C 593.193787 169.835266 588.567627 173.593719 586.483093 177.657349 C 581.393311 187.57959 575.547363 197.129684 569.644409 206.604431 C 568.593872 208.290634 565.822632 209.808182 563.814453 209.848923 C 549.991577 210.129303 536.156616 209.817276 522.334229 210.109283 C 518.350647 210.193466 517.167542 207.543381 515.765015 205.149719 C 509.71637 194.826385 504.154816 184.208923 497.8638 174.040115 C 494.826935 169.131287 495.367859 165.322037 499 160.992798 z" stroke-linecap="round" />
</g>
<g transform="matrix(1.48 0 0 1.44 489.27 609.45)"  >
<path style="stroke: none; stroke-width: 1; stroke-dasharray: none; stroke-linecap: butt; stroke-dashoffset: 0; stroke-linejoin: miter; stroke-miterlimit: 4; fill: rgb(222,145,2); fill-rule: nonzero; opacity: 1;" vector-effect="non-scaling-stroke"  transform=" translate(-544.4, -262.03)" d="M 578.110962 235.963272 C 582.426331 243.544479 586.800598 250.680649 590.54718 258.132446 C 591.604858 260.236176 591.80658 263.798431 590.727112 265.779846 C 584.210938 277.740784 577.301025 289.492798 570.251221 301.150482 C 569.376953 302.596191 566.908325 303.843292 565.157166 303.871765 C 551.509888 304.093811 537.852722 303.790955 524.209045 304.104004 C 519.349792 304.215485 518.178223 300.656036 516.48291 297.796326 C 510.205292 287.207184 504.126251 276.494934 498.256134 265.67511 C 497.325195 263.959167 496.979736 260.977173 497.845032 259.38623 C 504.350677 247.424652 511.040009 235.549744 518.164856 223.950516 C 519.419312 221.908279 522.950989 220.254456 525.483826 220.178314 C 538.12439 219.798309 550.783386 220.082382 563.434143 219.956772 C 567.194336 219.919434 569.650696 221.297989 571.402527 224.636932 C 573.38092 228.407852 575.739075 231.979507 578.110962 235.963272 z" stroke-linecap="round" />
</g>
<g transform="matrix(1.48 0 0 1.44 606.79 539.51)"  >
<path style="stroke: none; stroke-width: 1; stroke-dasharray: none; stroke-linecap: butt; stroke-dashoffset: 0; stroke-linejoin: miter; stroke-miterlimit: 4; fill: rgb(222,145,2); fill-rule: nonzero; opacity: 1;" vector-effect="non-scaling-stroke"  transform=" translate(-623.99, -213.55)" d="M 613.019165 171.881256 C 623.668457 171.881119 633.827759 171.686707 643.968567 172.032593 C 646.195251 172.108551 649.289978 173.527557 650.395569 175.3125 C 657.301636 186.462311 663.959656 197.782043 670.182678 209.324295 C 671.370728 211.527878 671.234619 215.495605 670.033264 217.760147 C 663.963074 229.202164 657.480408 240.435944 650.769104 251.516678 C 649.656616 253.353516 646.720215 255.091644 644.586853 255.140701 C 630.947144 255.454269 617.293091 255.426132 603.652588 255.119537 C 601.558594 255.072464 598.622498 253.535187 597.583862 251.789795 C 590.648376 240.134583 584.032043 228.284622 577.575928 216.355072 C 576.756897 214.841537 576.769043 212.11554 577.590515 210.597778 C 584.002991 198.750687 590.573914 186.982086 597.46521 175.409134 C 598.511108 173.652695 601.35144 172.467377 603.562988 172.026047 C 606.444336 171.451004 609.526672 171.882767 613.019165 171.881256 z" stroke-linecap="round" />
</g>
</svg>